<?xml version="1.0" encoding="UTF-8"?>
<svg id="_레이어_1" data-name="레이어 1" xmlns="http://www.w3.org/2000/svg" viewBox="0 0 1190.55 1683.78">
  <defs>
    <style>
      .cls-1 {
        fill: #5f5f5f;
      }
    </style>
  </defs>
  <path class="cls-1" d="M370.46,814.58c-.79-9.78-3.61-19.15-8.44-28.14-4.84-8.99-11.25-17.09-19.25-24.29-8-7.21-16.64-12.79-25.93-16.74-3.76-1.57-7.95-2.82-12.59-3.7-4.65-.89-9.33-1.38-14.07-1.48-4.74-.1-9.33.35-13.77,1.33-4.45.99-8.15,2.47-11.11,4.44-3.36,2.17-6.37,4.84-9.04,8-2.66,3.16-4.79,6.71-6.37,10.67-3.95,8.49-5.63,18.17-5.03,29.03.39,11.65,2.32,23.5,5.78,35.55,3.45,12.04,7.36,24.59,11.7,37.62,3.36,10.07,6.57,20.14,9.63,30.22,3.06,10.07,5.48,20.09,7.26,30.07,1.78,9.98,2.56,19.85,2.37,29.63-.2,9.77-1.98,19.4-5.33,28.88-3.76,10.27-10.18,18.96-19.26,26.07-9.09,7.11-19.95,12.04-32.58,14.81-13.04,2.77-25.53,2.47-37.48-.89-11.95-3.36-21.78-9.28-29.48-17.77-6.71-7.11-10.81-15.9-12.29-26.37-1.48-10.47-.25-21.33,3.71-32.58,3.95-11.06,9.67-20.09,17.18-27.11,7.51-7,15.9-11.2,25.18-12.59,4.14-.59,8.25.05,12.29,1.93,4.05,1.88,7.36,4.84,9.93,8.89,2.56,4.05,3.95,8.88,4.14,14.52.2,5.63-1.38,11.8-4.74,18.51-1.58,2.97-.84,5.54,2.22,7.7,3.06,2.17,6.81,3.6,11.25,4.3,4.45.68,8.84.54,13.18-.44,4.34-1,7.12-3.26,8.3-6.81,3.56-10.47,3.66-19.66.3-27.56-3.36-7.89-8.39-14.47-15.11-19.7-6.71-5.23-14.12-8.93-22.22-11.11-8.1-2.17-15.21-2.76-21.33-1.77-11.85,1.58-22.52,6.91-32,15.99-8.69,8.3-15.31,18.77-19.85,31.4-4.55,12.25-6.02,24.59-4.44,37.03,1.78,13.43,6.91,24.79,15.41,34.07,9.87,10.46,22.02,17.47,36.44,21.03,7.51,2.17,15.79,3.6,24.88,4.29,9.09.69,17.68,1.04,25.78,1.04,16.19,0,31.5-3.06,45.92-9.19,11.06-4.74,20.34-10.86,27.85-18.36,7.51-7.51,12.93-16,16.3-25.48,6.71-18.36,8-39.69,3.85-63.99-1.77-10.67-4.29-21.18-7.55-31.55-3.25-10.36-6.57-20.59-9.92-30.66-1-2.96-2.42-7.65-4.3-14.07-1.88-6.42-3.75-13.48-5.63-21.18-1.88-7.7-3.51-15.65-4.89-23.85-1.38-8.19-2.17-15.6-2.37-22.22-.2-6.62.49-12.09,2.08-16.44,1.57-4.34,4.44-6.52,8.59-6.52,6.11,0,12.09,2.27,17.92,6.81,5.82,4.55,10.41,10.52,13.77,17.93,3.36,7.41,4.94,15.75,4.74,25.04-.2,9.28-3.36,18.76-9.48,28.44-1.58,2.57-1.14,4.79,1.33,6.66,2.46,1.88,5.73,3.21,9.77,4,4.05.79,8.1.79,12.15,0,4.05-.78,6.86-2.56,8.44-5.33,4.94-8.89,7-18.22,6.22-27.99Z"/>
  <path class="cls-1" d="M589.96,977.26c-5.01,0-10.35-.3-16.01-.88-2.3-.19-4.7-.61-7.25-1.28-2.43-.63-4.7-1.67-6.75-3.1-2.01-1.41-3.76-3.33-5.18-5.74-1.38-2.33-2.09-5.32-2.09-8.87,0-3.32.61-5.69,1.77-6.85,1.54-1.86,3.2-2.66,5.37-2.66,1.89,0,3.54.62,5.05,1.89,1.41,1.19,2.09,2.7,2.09,4.65,0,2.96-1.23,4.91-3.85,6.14-.5.23-.89.66-1.07,1.19-.18.52-.15,1.09.1,1.59,1.94,3.88,4.81,4.69,6.87,4.69h.08c3.45,0,6.62-1.36,10.22-4.13,3.61-2.79,7.31-6.69,11.32-11.93,3.95-5.17,8.05-11.48,12.14-18.75,4.17-7.31,8.39-15.74,12.54-25.05,2.58-5.76,4.77-12.21,6.51-19.16,1.69-6.96,2.71-13.63,2.99-19.8.32-6.33-.25-11.9-1.69-16.55-1.61-5.14-4.69-8.35-9.15-9.52-1.17-.25-2.29-.37-3.39-.37-4.08,0-8.27,1.65-12.45,4.89-4.96,3.83-9.97,9.04-14.88,15.48-4.86,6.32-9.69,13.62-14.37,21.69-4.67,8.03-8.87,15.72-12.65,23.05-3.59,7.79-6.91,15.05-9.97,21.87-3.09,6.88-5.58,13.06-7.47,18.54-1.91,5.54-3.27,10.21-4.07,14.02-.9,4.26-.84,7.31.17,9.34.11.22.45.9-1.38,2.37-1.71,1.38-3.98,2.13-6.77,2.22h-.03c-3.08,0-5.94-.95-8.89-2.8-3.01-1.89-5.36-5.58-6.98-10.99-1.08-3.23-.71-8.63,1.07-16.13.43-1.8,1.01-3.81,1.59-5.81l.54-1.86c.28-.97-.19-1.99-1.09-2.41-.28-.13-.58-.2-.88-.2-.66,0-1.29.31-1.69.88l-1.39,2.12c-4.67,6.61-9.55,12.72-14.51,18.17-4.89,5.37-9.91,9.85-14.9,13.32-4.77,3.3-9.36,4.97-13.65,4.97h-.14c-7.33,0-11.82-2.68-14.97-8.16-3.52-6.11-4.82-14.07-3.88-23.66.09-.95-.48-1.84-1.39-2.14-.21-.07-.43-.11-.65-.11-.7,0-1.36.35-1.74.97-3.71,6.04-7.64,11.59-11.69,16.5-3.97,4.83-8.33,8.72-12.97,11.56-4.56,2.78-9.46,4.48-14.56,5.03-.88.1-1.79.15-2.71.15-4.34,0-9.1-1.09-14.18-3.25-7.46-2.99-12.84-7.37-16.05-13.05-3.3-5.83-5.25-12.27-5.82-19.15-.57-6.96.01-14.33,1.74-21.89,1.74-7.65,3.9-14.78,6.42-21.19,4.67-11.86,9.93-22.14,15.64-30.56,5.66-8.37,11.76-15.3,18.13-20.61,6.3-5.25,12.86-9.07,19.49-11.33,6.14-2.11,12.44-3.18,18.74-3.18l1.58.02c2.15.18,4.55.61,7.1,1.27,2.41.63,4.69,1.67,6.76,3.11,2.01,1.41,3.76,3.34,5.18,5.73,1.38,2.34,2.08,5.32,2.08,8.88s-.74,6.12-2.2,7.29c-1.43,1.57-2.97,2.22-4.94,2.22s-3.54-.62-5.05-1.89c-1.43-1.19-2.09-2.68-2.09-4.65,0-1.19.33-2.28,1.01-3.34.75-1.16,1.72-2.17,2.87-2.99.78-.55,1.07-1.57.7-2.46-1.66-3.98-4.52-4.82-6.63-4.82h-.07c-3.63,0-6.93,1.4-10.39,4.15-3.46,2.74-7.22,6.75-11.16,11.91-3.88,5.08-7.97,11.44-12.16,18.91-4.17,7.46-8.39,15.83-12.52,24.88-2.62,5.85-4.8,12.19-6.49,18.87-1.71,6.72-2.68,13.25-2.88,19.39-.2,6.23.42,11.78,1.86,16.52,1.57,5.15,4.47,8.59,8.63,10.2,1.29.55,2.7.85,4.13.85,2.09,0,4.24-.63,6.38-1.88,3.26-1.9,6.54-4.85,9.74-8.77,3.11-3.81,6.35-8.47,9.64-13.86,3.28-5.37,6.46-10.98,9.55-16.85,3.06-5.83,6.04-11.68,8.91-17.52,2.85-5.81,5.56-11.18,8.13-16.1,2.82-6.64,5.54-12.8,8.2-18.61,2.68-5.86,4.92-11.14,6.71-15.82,1.81-4.75,3.04-8.86,3.66-12.22.71-3.94.26-6.69-1.38-8.41.18-.14.61-.51,1.45-1,2.37-1.41,5.39-2.21,8.98-2.39h.18c4.19,0,7.63.84,11.15,2.48,3.67,1.71,6.34,5.27,7.94,10.58,1.65,5.33,1.36,11.96-.9,19.72-2.34,8.08-5.63,16.6-9.81,25.32-4.23,8.85-8.75,17.6-13.57,26.25-4.86,8.73-8.93,16.52-12.2,23.37-3.39,7.08-5.3,12.62-5.81,16.93-.3,2.44.16,4.37,1.38,5.75,1.22,1.38,3.1,2.08,5.57,2.08,3.64-.31,6.38-1.99,9.96-5.34,3.25-3.05,6.8-6.96,10.56-11.62,3.77-4.67,7.7-9.88,11.78-15.65,4.07-5.77,7.85-11.54,11.33-17.3,3.47-5.75,6.6-11.22,9.39-16.38,2.85-5.3,4.82-9.56,6.05-13.03,5.38-12.72,10.66-25.06,16.09-37.49,5.43-12.45,10.67-24.55,15.71-36.3,5.04-11.76,9.43-22.3,13.2-31.59,3.77-9.33,6.58-17.17,8.36-23.31,2.09-7.16,2.22-11.04.45-12.91.17-.14.61-.51,1.44-1,2.37-1.41,5.44-2.2,9.12-2.39h.17c4.28,0,7.72.84,11.17,2.47,3.56,1.71,6.18,5.27,7.78,10.58.89,3.01.73,7.46-.47,13.22-1.28,6.05-3.4,13.14-6.3,21.05-2.97,8.07-6.45,16.87-10.48,26.42-4.05,9.55-8.42,19.35-13.15,29.4-.42.89-.16,1.96.65,2.53.35.26.78.39,1.2.39.51,0,1.02-.18,1.4-.55,6.28-5.89,13.13-10.02,20.39-12.28,2.74-.85,5.59-1.28,8.51-1.28,4.66,0,9.64,1.11,14.83,3.28,7.44,3.18,12.85,7.63,16.04,13.21,3.29,5.75,5.24,12.14,5.8,19,.58,6.96,0,14.33-1.72,21.89-1.75,7.67-3.93,14.79-6.44,21.19-5.07,12.67-10.77,23.49-16.93,32.15-6.2,8.69-12.74,15.72-19.44,20.89-.75.59-1,1.62-.61,2.49.35.73,1.09,1.18,1.86,1.18.14,0,.3-.01.44-.05,10.15-2.23,19.26-6.61,27.07-13.01,7.68-6.27,15.11-13.69,22.06-22.05,6.48-7.66,12.48-15.65,17.78-23.74,4.32-6.59,7.84-12.55,10.89-18.15,3.87-9.14,8.19-16.94,13.2-24.17,5.03-7.24,10.75-13.63,17-19.01,6.2-5.35,13.08-9.52,20.43-12.38,6.42-2.51,13.22-3.78,20.19-3.78l2.81.07c3.39.18,6.21.93,8.37,2.23,2.23,1.33,4.08,2.95,5.51,4.82,1.43,1.88,2.51,3.96,3.23,6.2.76,2.38,1.31,4.62,1.71,6.71-.03,2.92-.73,4.41-1.31,5.1-1.48,2.66-3.26,3.73-5.86,3.73-1.89,0-3.54-.62-5.06-1.89-1.41-1.19-2.08-2.68-2.08-4.65,0-1.2.32-2.29,1-3.34.75-1.14,1.71-2.15,2.88-2.99.86-.61,1.12-1.78.59-2.69-1.99-3.44-4.43-5.18-7.27-5.18-2.49,0-5.13.97-7.85,2.89-2.5,1.79-5.07,4.19-7.63,7.15-2.49,2.89-4.91,5.82-7.3,8.8-4.24,5.46-8.33,11.78-12.19,18.8-3.87,7.03-7.34,14.39-10.34,21.86-2.98,7.46-5.41,14.93-7.2,22.19-1.81,7.31-2.77,14.09-2.87,20.16-.1,6.22.8,11.46,2.7,15.56,2.08,4.48,5.56,7.2,10.38,8.11.13.03,1.65.18,1.78.18,3.13,0,6.37-1.53,9.88-4.65,3.77-3.37,7.55-7.72,11.27-12.94,3.63-5.09,7.26-10.78,10.77-16.9,3.47-6.06,6.51-11.68,9.09-16.85.25-.51.28-1.09.08-1.62-.18-.53-.59-.95-1.12-1.18-3.66-1.57-6.11-4.05-7.48-7.6-1.44-3.7-1.91-7.48-1.36-11.26.54-3.82,1.95-7.08,4.29-9.96,2.17-2.68,4.86-3.98,8.19-3.98,1.33,0,3.04.1,5.14.29,1.62.15,3.02.93,4.25,2.39,1.27,1.52,2.02,4.14,2.19,7.82.18,3.9-.89,9.74-3.18,17.39-.18.63-.07,1.31.34,1.83.38.51.99.8,1.62.8h.06c8.11-.2,14.74-1.36,19.7-3.42,4.93-2.05,8.85-4.37,11.68-6.88,1.71-1.52,3.11-3.15,4.39-5.13,4.17-9.18,7.81-17.41,11.08-24.92,3.37-7.75,5.9-14.52,7.51-20.1,1.82-6.38,1.68-10.39-.45-12.61.18-.14.61-.51,1.44-1.01,2.37-1.4,5.44-2.2,9.14-2.38h.18c4.29,0,7.7.84,11.11,2.47,3.6,1.7,6.23,5.27,7.82,10.59.71,2.32.97,4.93.8,7.73-.18,2.94-.66,6.04-1.43,9.28-.23.92.23,1.86,1.06,2.29.3.15.62.22.93.22.58,0,1.16-.25,1.55-.71,3.71-4.31,7.5-8.43,11.32-12.35,3.77-3.88,7.63-7.29,11.45-10.16,3.83-2.87,7.6-5.19,11.2-6.9,3.46-1.64,6.86-2.47,10.1-2.47h.03c7.24,0,12.06,2.95,15.35,9.01,3.53,6.5,4.65,15.05,3.32,25.42-.4,6.62-1.85,13.56-4.34,20.77-2.56,7.35-5.46,14.61-8.67,21.59-3.25,7.08-6.5,13.83-9.74,20.21-3.36,6.64-5.86,12.18-7.65,16.95-1.91,5.12-2.67,9.15-2.33,12.34.23,2.29,1.64,6.13,8.4,6.13,2.37,0,5.15-1.53,8.78-4.82,3.23-2.93,6.79-6.79,10.59-11.49,3.77-4.68,7.71-9.95,11.79-15.82,4.07-5.85,7.89-11.66,11.45-17.42,3.59-5.77,6.78-11.3,9.56-16.56,2.85-5.41,4.83-9.71,6.04-13.16.45-1.21,1.09-1.54,1.6-1.68.51-.14.99-.22,1.44-.22,1.91.43,2.44.9,2.89,1.65.14.25.44.76-.16,1.81-1.65,3.48-3.91,8.06-6.86,13.85-2.95,5.79-6.42,11.96-10.45,18.53-4.01,6.58-8.4,13.21-13.1,19.89-4.7,6.65-9.57,12.77-14.5,18.17-4.87,5.36-9.88,9.84-14.91,13.33-4.76,3.29-9.35,4.96-13.64,4.96h-.2c-4,0-6.51-.8-8.66-2.41-2.49-1.86-4.56-4.45-6.2-7.72-1.69-3.37-2.87-7.21-3.52-11.4-.66-4.2-.71-8.54-.14-12.9.96-7.94,2.82-15.86,5.54-23.59,2.68-7.71,5.7-15.28,8.97-22.49,3.23-7.17,6.44-13.75,9.59-19.74,3.18-6.1,5.61-11.47,7.22-15.97,1.72-4.84,2.27-8.54,1.69-11.32-.47-2.24-2.25-4.91-8.03-4.91-3.76.28-7.03,2.07-11.41,5.68-4.01,3.3-8.42,7.55-13.1,12.64-4.66,5.08-9.4,10.64-14.16,16.71-4.77,6.06-9.05,11.88-12.82,17.45-3.9,7.94-7.79,15.57-11.82,23.15-4.07,7.63-7.68,14.82-10.86,21.56-3.19,6.76-5.56,12.84-7.07,18.09-1.65,5.69-1.65,10.05-.01,13.33.11.21.44.9-1.38,2.37-1.74,1.41-3.95,2.13-6.76,2.22h-.03c-3.09,0-5.96-.95-8.88-2.8-3.04-1.9-5.38-5.6-6.99-11-1.47-4.41-1.36-10.32.32-17.62,1.74-7.55,4.29-15.78,7.63-24.46.78-2.05,1.68-4.14,2.58-6.25l1.84-4.38c.32-.78.13-1.68-.49-2.26-.38-.37-.89-.56-1.4-.56-.3,0-.61.06-.89.2-4.29,2.07-8.98,3.66-13.92,4.74-4.5.98-9.08,1.48-13.6,1.48,0,0-2.39-.04-2.41-.04-.8,0-1.54.47-1.86,1.21-2.73,6.03-6.24,12.85-10.42,20.28-4.15,7.32-9.01,14.24-14.45,20.56-5.37,6.23-11.34,11.42-17.75,15.45-5.44,3.4-11.25,5.13-17.3,5.13-.88,0-1.75-.03-2.64-.1-9.33-.94-16.48-4.75-21.79-11.65-5.34-6.93-8.23-15.5-8.61-25.49-.1-4.02.14-8.58.75-13.88.11-.92-.42-1.81-1.3-2.15-.24-.09-.48-.13-.73-.13-.65,0-1.27.3-1.67.85-5.63,7.79-10.97,14.51-16.32,20.55-4.83,5.42-10.08,10.48-15.6,15.03-5.46,4.49-11.69,8.28-18.5,11.26-6.79,2.97-14.61,5.06-23.29,6.21-4.36.59-9.04.88-14.04.88Z"/>
  <path class="cls-1" d="M394.09,1054.47c-22.71-11.36,19.19-26.39,22.43-27.16,12.09-2.87,24.59-1.78,36.87-.92,20.26,1.42,40.46,3.74,60.64,6.05,45.12,5.18,90.25,10.43,135.62,12.92,97.55,5.35,201.46-.05,293.57-35.42,80.32-30.84,159.44-109.67,111.48-200.18-27.85-52.58-82.16-87.87-134.1-113.35-71.4-35.03-150.08-59.33-229.09-69.01-139.99-17.16-290.6-3.91-424.77,40.19-46.7,15.35-107.3,36.74-135.89,79.94-26.66,40.28,5.44,77.06,38.6,100.25,5.45,3.81,17.24,9.29,24.01,6.68,5.15-1.99,9.49-4.39,2.57-9.23-29.41-20.57-55.39-51.86-32.01-87.11,24.23-36.51,74.2-55.87,113.44-70.02,127.12-45.83,272.35-60.48,406.46-47.03,79.77,8,160.08,31.64,230.92,69.26,47.07,24.99,97.17,61.06,114.82,113.88,34.25,102.53-80.4,164.82-161.45,185.74-112.54,29.05-228.33,22.49-342.59,9.39-38.15-4.37-78.12-11.9-116.62-9.77-31.32,1.74-82.85,27.61-35.2,51.44,9.29,4.64,40.45,3.57,20.28-6.51h0Z"/>
  <polygon class="cls-1" points="600.44 631.15 606.23 693.07 618.18 693.07 623.49 631.15 600.44 631.15"/>
  <polygon class="cls-1" points="437.16 641.21 452.72 685.86 458.31 684.28 447.94 638.16 437.16 641.21"/>
  <polygon class="cls-1" points="773.5 649.86 760.56 695.34 766.05 697.26 784.08 653.56 773.5 649.86"/>
  <polygon class="cls-1" points="1027.87 791.13 990.82 820.51 994.15 825.27 1034.3 800.32 1027.87 791.13"/>
  <polygon class="cls-1" points="918.8 698.48 883.79 749.88 893 757.5 936.56 713.17 918.8 698.48"/>
  <polygon class="cls-1" points="278.5 678.26 315.55 728.21 325.77 722.01 298.21 666.31 278.5 678.26"/>
</svg>